<?xml version="1.0" standalone="no"?>
<!DOCTYPE svg PUBLIC "-//W3C//DTD SVG 20010904//EN"
 "http://www.w3.org/TR/2001/REC-SVG-20010904/DTD/svg10.dtd">
<svg version="1.0" xmlns="http://www.w3.org/2000/svg"
 width="648.000000pt" height="385.000000pt" viewBox="0 0 648.000000 385.000000"
 preserveAspectRatio="xMidYMid meet">

<g transform="translate(0.000000,385.000000) scale(0.100000,-0.100000)"
fill="#000000" stroke="none">
<path d="M1216 2885 c-40 -14 -89 -55 -109 -90 -6 -11 -14 -58 -17 -105 l-5
-84 -72 -41 c-39 -22 -81 -47 -92 -55 -20 -15 -20 -15 -1 -38 l19 -23 53 41
c63 48 240 137 353 177 l80 28 -52 3 -53 3 0 100 0 99 -32 0 c-18 -1 -50 -7
-72 -15z"/>
<path d="M1520 2782 c0 -5 8 -16 19 -26 14 -13 24 -14 45 -6 15 5 37 10 49 9
17 0 12 -5 -20 -20 -48 -22 -48 -39 2 -81 l33 -28 41 69 c22 38 41 74 41 80 0
7 -37 11 -105 11 -58 0 -105 -4 -105 -8z"/>
<path d="M3825 2771 c-84 -36 -73 -157 16 -175 37 -7 93 15 108 42 18 33 13
79 -11 107 -25 28 -79 41 -113 26z"/>
<path d="M3552 2381 c3 -376 4 -391 24 -417 31 -43 67 -65 112 -71 l42 -6 0
364 c0 208 -4 379 -10 398 -17 61 -90 121 -145 121 l-26 0 3 -389z"/>
<path d="M1360 2622 c-133 -66 -203 -109 -247 -151 -22 -21 -23 -27 -23 -225
0 -201 0 -203 28 -256 38 -77 90 -102 204 -102 46 0 95 5 111 11 26 10 27 12
27 91 l0 80 -50 0 c-37 0 -55 5 -70 20 -19 19 -20 33 -20 230 l0 210 90 0 90
0 0 80 c0 44 -1 80 -3 80 -2 0 -63 -30 -137 -68z"/>
<path d="M1790 2509 c-14 -5 -40 -26 -57 -47 l-33 -37 0 38 c0 33 -3 37 -25
37 -38 0 -80 -25 -112 -67 l-28 -36 -3 -253 c-3 -247 -3 -252 18 -259 29 -9
82 11 114 44 37 38 45 82 46 228 0 67 3 129 6 138 10 25 59 45 114 45 l51 0
-3 88 -3 87 -30 2 c-16 1 -41 -2 -55 -8z"/>
<path d="M2143 2510 c-83 -17 -150 -65 -172 -123 -21 -55 -19 -57 79 -57 71 0
90 3 90 14 0 26 30 46 69 46 49 0 71 -24 71 -77 l0 -40 -83 -6 c-150 -12 -222
-55 -247 -148 -18 -67 -4 -118 45 -165 73 -70 190 -82 256 -27 l30 26 40 -23
c24 -13 66 -24 101 -28 l61 -5 -8 29 c-4 16 -10 124 -14 239 -6 224 -11 243
-63 292 -50 47 -167 71 -255 53z m135 -391 c3 -51 0 -59 -24 -78 -73 -58 -166
10 -123 90 14 27 66 49 109 46 l35 -2 3 -56z"/>
<path d="M2440 2514 c0 -21 136 -437 155 -474 41 -81 123 -140 193 -140 28 0
29 1 96 220 39 125 68 238 68 260 -1 67 -41 116 -108 135 -20 5 -24 -5 -69
-191 -26 -108 -51 -192 -55 -187 -4 4 -19 58 -34 118 -35 141 -69 196 -146
234 -37 19 -100 34 -100 25z"/>
<path d="M3133 2504 c-54 -19 -113 -77 -142 -138 -31 -67 -39 -192 -17 -268
44 -152 214 -238 386 -194 66 17 143 63 147 87 1 8 -15 34 -36 58 l-38 43 -41
-27 c-80 -53 -181 -40 -222 27 -35 58 -36 58 144 58 153 0 165 1 191 22 26 21
27 24 22 88 -10 118 -54 192 -139 234 -44 22 -65 26 -132 25 -45 0 -100 -7
-123 -15z m162 -128 c39 -16 55 -42 55 -85 l0 -31 -100 0 c-94 0 -100 1 -100
20 0 36 30 81 63 95 40 18 41 18 82 1z"/>
<path d="M3911 2508 c-50 -13 -79 -36 -106 -83 -25 -41 -25 -44 -25 -289 l0
-246 28 6 c49 11 99 51 121 97 20 42 21 56 19 284 l-3 239 -34 -8z"/>
<path d="M4260 2504 c-19 -8 -47 -27 -62 -41 -27 -26 -28 -26 -28 -6 0 33 -11
53 -27 53 -32 0 -96 -46 -119 -86 -24 -40 -24 -45 -24 -287 l0 -247 22 0 c40
0 106 40 130 78 21 34 23 50 26 210 4 162 5 173 25 187 34 24 99 19 125 -8 21
-22 22 -31 22 -246 l0 -224 42 6 c45 6 81 28 112 71 20 26 21 41 21 229 0 202
0 202 -27 248 -20 34 -38 51 -68 63 -50 20 -124 20 -170 0z"/>
<path d="M3071 1744 c-55 -28 -105 -85 -128 -147 -18 -51 -17 -500 2 -536 26
-51 104 -101 158 -101 4 0 7 63 7 140 l0 140 79 0 c99 0 174 14 231 44 172 89
166 351 -10 450 -51 29 -63 31 -170 34 -109 3 -118 2 -169 -24z m236 -144 c63
-38 69 -150 10 -194 -23 -17 -43 -21 -115 -21 l-87 0 -3 118 -3 117 83 0 c65
0 90 -4 115 -20z"/>
<path d="M2510 1625 c-260 -99 -326 -118 -391 -116 -62 2 -68 0 -88 -25 -11
-15 -21 -37 -21 -50 0 -13 -2 -24 -4 -24 -3 0 -93 20 -202 45 -108 25 -204 45
-214 45 -23 0 -34 -30 -18 -46 7 -8 163 -47 347 -89 184 -41 340 -80 347 -86
18 -15 18 -33 0 -48 -10 -9 -80 4 -302 54 -159 36 -299 65 -312 65 -20 0 -23
-5 -20 -27 l3 -28 338 -76 c344 -77 384 -91 357 -123 -7 -9 -22 -16 -33 -16
-12 0 -151 30 -310 66 -159 36 -296 63 -303 60 -22 -9 -16 -46 9 -55 12 -4
161 -39 330 -77 321 -71 342 -79 313 -119 -12 -17 -23 -16 -200 24 -102 22
-191 41 -196 41 -16 0 -11 -36 8 -58 14 -18 71 -31 350 -83 292 -54 336 -60
358 -49 26 14 35 37 37 91 l2 33 -81 16 c-44 8 -92 23 -107 33 -94 61 -84 200
18 249 42 21 49 21 122 9 42 -7 82 -15 89 -18 17 -6 34 36 34 82 0 24 -7 39
-25 53 -17 14 -37 53 -62 124 -20 56 -43 111 -51 121 -18 20 -71 22 -122 2z
m90 -26 c18 -13 28 -8 -150 -73 -128 -46 -190 -58 -190 -37 0 5 303 119 320
120 3 1 12 -4 20 -10z m65 -161 c8 -32 3 -34 -75 -17 -58 12 -57 17 8 40 52
18 58 16 67 -23z"/>
<path d="M4044 1444 c19 -55 62 -179 96 -278 55 -160 60 -182 49 -208 -15 -36
-45 -58 -82 -58 -28 0 -28 0 -25 -57 l3 -58 57 -3 c68 -4 118 16 148 59 31 43
200 533 200 579 0 32 -7 48 -32 75 -18 19 -45 37 -60 41 -26 6 -27 3 -51 -78
-14 -45 -33 -110 -42 -143 -10 -33 -21 -64 -25 -69 -5 -5 -16 18 -25 50 -21
78 -31 102 -62 147 -30 44 -91 82 -145 92 l-37 7 33 -98z"/>
<path d="M3649 1503 c-57 -30 -99 -80 -99 -119 0 -23 3 -24 80 -24 60 0 80 3
80 13 0 21 34 47 61 47 43 0 69 -27 69 -69 l0 -38 -72 -7 c-108 -10 -148 -24
-189 -64 -42 -43 -58 -110 -39 -167 20 -61 103 -115 178 -115 28 0 90 25 113
46 16 14 20 14 48 -7 22 -16 49 -24 93 -27 57 -4 61 -3 53 14 -5 11 -12 107
-15 214 -6 234 -14 258 -100 302 -44 24 -65 28 -129 28 -65 0 -86 -5 -132 -27z
m191 -337 c0 -46 -4 -56 -25 -70 -31 -20 -79 -21 -99 0 -9 8 -16 31 -16 49 0
46 38 75 96 75 l44 0 0 -54z"/>
<path d="M2524 1212 c-68 -54 -55 -160 23 -190 57 -21 160 -34 181 -23 23 12
26 21 41 104 16 89 10 96 -103 116 -83 15 -118 13 -142 -7z m89 -73 c15 -24 1
-49 -27 -49 -29 0 -44 33 -25 56 15 18 38 15 52 -7z"/>
</g>
</svg>
