<?xml version="1.0" standalone="no"?>
<!DOCTYPE svg PUBLIC "-//W3C//DTD SVG 20010904//EN"
 "http://www.w3.org/TR/2001/REC-SVG-20010904/DTD/svg10.dtd">
<svg version="1.0" xmlns="http://www.w3.org/2000/svg"
 width="300.000000pt" height="197.000000pt" viewBox="0 0 300.000000 197.000000"
 preserveAspectRatio="xMidYMid meet">

<g transform="translate(0.000000,197.000000) scale(0.100000,-0.100000)"
fill="#000000" stroke="none">
<path d="M255 1820 c-57 -23 -94 -96 -95 -185 0 -38 -3 -41 -53 -68 -28 -15
-61 -34 -72 -42 -17 -14 -18 -17 -4 -31 14 -13 21 -11 70 22 67 45 141 82 239
120 68 26 72 29 43 32 l-33 3 0 80 0 79 -37 -1 c-21 0 -47 -4 -58 -9z"/>
<path d="M520 1725 c7 -8 21 -15 31 -15 16 0 17 -3 7 -19 -10 -16 -7 -23 18
-44 l29 -26 17 22 c9 12 27 39 38 60 l21 37 -87 0 c-76 0 -85 -2 -74 -15z"/>
<path d="M2340 1727 c-14 -7 -31 -25 -38 -40 -18 -38 2 -78 46 -91 91 -26 144
93 57 130 -41 17 -34 17 -65 1z"/>
<path d="M2123 1422 c4 -342 6 -350 74 -378 67 -28 63 -45 63 289 0 282 -1
304 -20 334 -21 34 -66 63 -100 63 -21 0 -21 -1 -17 -308z"/>
<path d="M379 1612 c-125 -63 -208 -121 -216 -150 -3 -13 -4 -90 -1 -172 5
-161 15 -192 71 -233 30 -23 129 -34 192 -23 l35 7 0 64 0 65 -33 0 c-18 0
-43 7 -55 16 -21 15 -22 21 -22 185 l0 169 70 0 70 0 0 60 c0 33 -3 60 -7 60
-5 0 -51 -22 -104 -48z"/>
<path d="M715 1514 c-16 -8 -34 -22 -38 -30 -13 -22 -27 -16 -27 11 0 14 -5
25 -10 25 -29 0 -82 -33 -100 -62 -18 -30 -20 -50 -20 -229 0 -218 1 -221 64
-195 55 23 66 51 70 183 2 65 7 125 10 134 9 22 49 39 91 39 40 0 48 18 43 91
-3 39 -6 44 -28 47 -14 1 -38 -5 -55 -14z"/>
<path d="M995 1521 c-74 -19 -135 -75 -135 -123 0 -15 10 -18 68 -18 60 0 68
2 77 23 7 16 20 23 46 25 43 4 60 -14 62 -60 l2 -33 -78 -8 c-138 -13 -187
-56 -187 -161 0 -51 2 -56 41 -90 62 -53 146 -60 202 -16 24 19 25 19 63 0 21
-11 56 -20 77 -20 l39 0 -6 38 c-4 20 -7 93 -8 162 -2 184 -17 228 -90 266
-33 17 -132 26 -173 15z m123 -299 c4 -43 -19 -78 -57 -87 -44 -9 -71 9 -71
48 0 53 31 79 90 74 32 -2 35 -5 38 -35z"/>
<path d="M1240 1520 c0 -5 6 -27 14 -47 8 -21 35 -103 60 -183 49 -156 77
-204 140 -234 19 -9 46 -16 60 -16 23 0 27 7 56 103 18 56 42 137 56 180 13
43 24 85 24 94 0 35 -34 86 -68 100 -19 8 -35 13 -37 11 -1 -2 -17 -64 -34
-138 -41 -172 -42 -174 -50 -164 -4 5 -16 45 -26 89 -21 93 -33 120 -72 157
-42 40 -123 72 -123 48z"/>
<path d="M1795 1519 c-36 -10 -89 -59 -110 -100 -42 -81 -39 -218 7 -285 52
-75 167 -117 266 -96 51 11 132 55 132 72 0 4 -14 23 -31 43 l-31 37 -30 -21
c-40 -29 -97 -35 -136 -15 -31 16 -67 68 -55 80 4 3 64 6 135 6 113 0 130 2
147 19 21 21 20 69 -1 141 -14 47 -74 108 -118 120 -42 12 -134 12 -175 -1z
m147 -116 c21 -19 33 -64 18 -73 -10 -6 -150 -2 -158 5 -1 1 3 16 9 34 19 54
87 71 131 34z"/>
<path d="M2405 1518 c-38 -9 -79 -52 -94 -97 -6 -20 -11 -106 -11 -213 l0
-179 23 6 c45 14 81 41 99 76 16 32 18 57 16 226 l-3 189 -30 -8z"/>
<path d="M2685 1516 c-17 -7 -36 -20 -44 -29 -16 -20 -31 -13 -31 14 0 44 -86
3 -113 -54 -14 -29 -17 -68 -17 -227 l0 -192 32 6 c88 17 108 60 108 230 0
118 1 126 22 140 33 24 84 20 102 -6 13 -18 16 -55 16 -195 l0 -173 24 0 c30
0 87 39 104 70 9 18 12 68 10 180 -3 127 -7 161 -21 188 -30 56 -122 79 -192
48z"/>
<path d="M1755 921 c-49 -23 -89 -64 -109 -113 -23 -53 -23 -395 -1 -442 17
-35 45 -56 92 -66 l32 -8 3 109 3 109 86 4 c160 6 247 71 257 191 8 103 -59
195 -164 224 -60 17 -153 13 -199 -8z m192 -135 c32 -38 31 -98 -2 -131 -21
-22 -33 -25 -100 -25 l-75 0 0 88 c0 49 3 92 8 96 4 5 38 6 76 3 60 -4 73 -8
93 -31z"/>
<path d="M1170 774 c-123 -45 -152 -52 -191 -47 -41 5 -48 2 -63 -18 -9 -13
-16 -32 -16 -42 0 -21 2 -21 -171 19 -138 32 -182 35 -187 12 -4 -20 -1 -21
300 -88 123 -27 233 -54 246 -60 23 -10 29 -34 11 -46 -6 -3 -118 18 -250 47
-182 41 -242 50 -250 42 -17 -17 3 -39 39 -45 113 -19 500 -113 512 -124 12
-12 12 -16 -1 -29 -13 -13 -42 -8 -259 40 -134 30 -247 55 -252 55 -11 0 -10
-37 0 -44 8 -5 230 -56 441 -102 76 -17 81 -20 81 -45 0 -26 -32 -25 -167 6
-59 14 -118 27 -130 30 -18 4 -23 1 -23 -13 0 -39 33 -49 298 -98 259 -47 263
-47 281 -28 23 24 35 83 18 89 -6 2 -38 9 -70 15 -39 8 -69 21 -90 40 -28 25
-32 35 -32 78 0 89 63 131 165 111 33 -6 66 -9 75 -6 25 10 19 76 -9 106 -13
15 -33 55 -45 91 -29 90 -45 110 -84 109 -18 -1 -97 -25 -177 -55z m197 19 c4
-10 -219 -93 -250 -93 -43 0 -7 22 106 63 125 46 138 49 144 30z m48 -114 c10
-29 2 -33 -52 -22 l-48 9 35 16 c47 22 58 22 65 -3z"/>
<path d="M2250 741 c-65 -14 -113 -54 -125 -103 l-7 -28 65 0 c57 0 67 3 72
20 8 25 46 35 74 20 15 -7 21 -20 21 -44 l0 -33 -62 -7 c-91 -11 -145 -37
-163 -80 -25 -59 -20 -108 16 -144 28 -29 81 -52 118 -52 8 0 34 9 58 21 41
20 45 20 77 5 19 -9 49 -16 68 -16 l33 0 -3 157 c-3 138 -6 164 -25 203 -12
25 -35 52 -52 62 -36 20 -116 30 -165 19z m103 -285 c-3 -49 -18 -66 -57 -66
-38 0 -56 15 -56 47 0 37 35 65 78 61 36 -3 37 -4 35 -42z"/>
<path d="M2495 733 c64 -166 144 -419 139 -439 -7 -29 -40 -54 -70 -54 -19 0
-22 -5 -20 -42 l1 -43 53 -3 c58 -3 90 11 117 51 25 39 155 419 155 455 0 24
-8 42 -29 63 -41 41 -65 38 -78 -8 -43 -151 -57 -193 -63 -193 -4 0 -15 26
-24 59 -22 78 -63 134 -115 155 -55 21 -75 21 -66 -1z"/>
<path d="M1324 500 c-52 -21 -69 -88 -34 -133 22 -28 104 -51 162 -45 34 3 38
11 51 95 9 52 -5 68 -70 78 -26 3 -57 8 -68 10 -11 2 -30 0 -41 -5z m56 -65
c10 -12 10 -18 0 -30 -25 -30 -61 -7 -46 30 3 8 12 15 19 15 8 0 20 -7 27 -15z"/>
</g>
</svg>
